<mxfile host="65bd71144e">
    <diagram id="UpT3FjYjCqG-Ug2x3jae" name="Page-1">
        <mxGraphModel dx="765" dy="563" grid="1" gridSize="10" guides="1" tooltips="1" connect="1" arrows="1" fold="1" page="1" pageScale="1" pageWidth="850" pageHeight="1100" math="0" shadow="0">
            <root>
                <mxCell id="0"/>
                <mxCell id="1" parent="0"/>
                <mxCell id="2" value="MoviesController" style="rounded=0;whiteSpace=wrap;html=1;spacing=2;fontSize=18;" vertex="1" parent="1">
                    <mxGeometry x="80" y="340" width="180" height="60" as="geometry"/>
                </mxCell>
                <mxCell id="3" value="TvshowsController" style="rounded=0;whiteSpace=wrap;html=1;spacing=2;fontSize=18;" vertex="1" parent="1">
                    <mxGeometry x="280" y="340" width="180" height="60" as="geometry"/>
                </mxCell>
                <mxCell id="4" value="PersonsController" style="rounded=0;whiteSpace=wrap;html=1;spacing=2;fontSize=18;" vertex="1" parent="1">
                    <mxGeometry x="480" y="340" width="180" height="60" as="geometry"/>
                </mxCell>
                <mxCell id="9" style="edgeStyle=none;html=1;entryX=0.5;entryY=0;entryDx=0;entryDy=0;" edge="1" parent="1" source="5" target="2">
                    <mxGeometry relative="1" as="geometry"/>
                </mxCell>
                <mxCell id="10" style="edgeStyle=none;html=1;entryX=0.5;entryY=0;entryDx=0;entryDy=0;" edge="1" parent="1" source="5" target="3">
                    <mxGeometry relative="1" as="geometry"/>
                </mxCell>
                <mxCell id="11" style="edgeStyle=none;html=1;entryX=0.5;entryY=0;entryDx=0;entryDy=0;" edge="1" parent="1" source="5" target="4">
                    <mxGeometry relative="1" as="geometry"/>
                </mxCell>
                <mxCell id="5" value="BaseController" style="rounded=0;whiteSpace=wrap;html=1;spacing=2;fontSize=18;" vertex="1" parent="1">
                    <mxGeometry x="280" y="210" width="180" height="60" as="geometry"/>
                </mxCell>
                <mxCell id="8" style="edgeStyle=none;html=1;entryX=0.5;entryY=0;entryDx=0;entryDy=0;" edge="1" parent="1" source="6" target="5">
                    <mxGeometry relative="1" as="geometry"/>
                </mxCell>
                <mxCell id="6" value="&lt;div style=&quot;line-height: 19px; color: rgb(131, 148, 150);&quot;&gt;&lt;span&gt;ApplicationController&lt;/span&gt;&lt;br&gt;&lt;/div&gt;" style="rounded=0;whiteSpace=wrap;html=1;spacing=2;fontSize=18;" vertex="1" parent="1">
                    <mxGeometry x="260" y="80" width="220" height="60" as="geometry"/>
                </mxCell>
            </root>
        </mxGraphModel>
    </diagram>
</mxfile>